<?xml version="1.0" encoding="UTF-8"?>
<svg xmlns="http://www.w3.org/2000/svg" viewBox="100 100 250 260">
  <defs><style>.cls-1{fill:#391057;stroke-width:0px;}</style></defs>
  <path class="cls-1" d="m119.56,220.42c0-31.8,11.31-59.11,33.93-81.94,22.52-22.83,49.59-34.24,81.19-34.24s58.01,11.51,80.34,34.53c22.43,23.02,33.64,50.68,33.64,82.96s-11.26,60.04-33.78,82.67c-22.62,22.73-49.92,34.09-81.9,34.09-28.3,0-53.71-10.1-76.23-30.29-24.79-22.34-37.19-51.6-37.19-87.79Zm33.36.44c0,24.97,8.14,45.5,24.42,61.6,16.18,16.09,34.87,24.14,56.07,24.14,23,0,42.39-8.19,58.2-24.58,15.8-16.58,23.71-36.77,23.71-60.57s-7.81-44.28-23.42-60.57c-15.52-16.39-34.73-24.58-57.63-24.58s-42.07,8.19-57.77,24.58c-15.71,16.19-23.56,36.19-23.56,59.99Z"/>
  <polygon class="cls-1" points="238.64 279.41 217.87 258.58 232.53 224.58 198.35 239.01 177.52 218.13 282.69 175.06 238.64 279.41"/>
</svg>
