<?xml version="1.0" encoding="UTF-8"?> <svg xmlns="http://www.w3.org/2000/svg" id="Layer_1" data-name="Layer 1" viewBox="0 0 2376 477"><defs><style> .cls-1 { fill: #fff; stroke-width: 0px; } </style></defs><path class="cls-1" d="m446.87,341.99l43.96-224.52,71.68,162.3,74.25-162.3,39.49,224.52h-32.33l-20.15-126.06-61.81,135.66-60.05-135.79-22.45,126.19h-32.6Z"></path><path class="cls-1" d="m787.88,341.99V118.96l152.3,159.33v-145.13h31.51v221.55l-152.3-158.92v146.21h-31.51Z"></path><path class="cls-1" d="m1124.69,133.16v208.83h-31.51v-208.83h31.51Z"></path><path class="cls-1" d="m1254.89,133.16l57.75,144.72,58.56-144.72h34.49l-93.73,224.52-91.57-224.52h34.49Z"></path><path class="cls-1" d="m1532.6,133.16v208.83h-31.51v-208.83h31.51Z"></path><path class="cls-1" d="m1770.63,164.27l-25.56,15.15c-4.78-8.29-9.33-13.71-13.66-16.23-4.51-2.88-10.33-4.33-17.45-4.33-8.75,0-16.01,2.48-21.78,7.44-5.77,4.87-8.66,11-8.66,18.39,0,10.19,7.57,18.39,22.72,24.62l20.83,8.52c16.95,6.85,29.35,15.22,37.19,25.09,7.84,9.87,11.77,21.98,11.77,36.32,0,19.21-6.4,35.08-19.21,47.61-12.9,12.62-28.9,18.94-48.02,18.94-18.12,0-33.09-5.36-44.9-16.1-11.63-10.73-18.89-25.83-21.78-45.31l31.92-7.03c1.44,12.26,3.97,20.74,7.57,25.43,6.49,9.02,15.96,13.53,28.4,13.53,9.83,0,17.99-3.29,24.48-9.87,6.49-6.58,9.74-14.92,9.74-25.02,0-4.06-.56-7.78-1.69-11.16-1.13-3.38-2.89-6.49-5.27-9.33-2.39-2.84-5.48-5.5-9.27-7.98-3.79-2.48-8.3-4.85-13.53-7.1l-20.15-8.39c-28.58-12.08-42.88-29.76-42.88-53.02,0-15.69,6-28.81,17.99-39.36,11.99-10.64,26.92-15.96,44.77-15.96,24.08,0,42.88,11.72,56.4,35.17Z"></path><path class="cls-1" d="m2000.78,162.78h-83.72v50.18h81.29v29.62h-81.29v69.79h83.72v29.62h-115.24v-208.83h115.24v29.62Z"></path><path class="cls-1" d="m2184.78,252.99l64.65,89h-38.55l-59.65-85.48h-5.68v85.48h-31.51v-208.83h36.92c27.59,0,47.52,5.19,59.78,15.55,13.53,11.54,20.29,26.78,20.29,45.72,0,14.79-4.24,27.5-12.71,38.14-8.48,10.64-19.66,17.45-33.54,20.42Zm-39.22-23.94h10.01c29.84,0,44.77-11.41,44.77-34.22,0-21.37-14.52-32.06-43.55-32.06h-11.23v66.27Z"></path><g><path class="cls-1" d="m132.56,233.5c0-31.8,11.31-59.11,33.93-81.94,22.52-22.83,49.59-34.24,81.19-34.24s58.01,11.51,80.34,34.53c22.43,23.02,33.64,50.68,33.64,82.96s-11.26,60.04-33.78,82.67c-22.62,22.73-49.92,34.09-81.9,34.09-28.3,0-53.71-10.1-76.23-30.29-24.79-22.34-37.19-51.6-37.19-87.79Zm33.36.44c0,24.97,8.14,45.5,24.42,61.6,16.18,16.09,34.87,24.14,56.07,24.14,23,0,42.39-8.19,58.2-24.58,15.8-16.58,23.71-36.77,23.71-60.57s-7.81-44.28-23.42-60.57c-15.52-16.39-34.73-24.58-57.63-24.58s-42.07,8.19-57.77,24.58c-15.71,16.19-23.56,36.19-23.56,59.99Z"></path><polygon class="cls-1" points="251.64 292.48 230.87 271.66 245.53 237.65 211.35 252.08 190.52 231.2 295.69 188.13 251.64 292.48"></polygon></g></svg>
